<svg xmlns="http://www.w3.org/2000/svg" width="24" height="24" viewBox="0 0 992.2 1000">
  <path d="M374.6 802.8l64 45.7L190.7 1000c10.5-165 132.5-144.9 132.5-144.9zm187.6 2c18-8.6 133.5-57.7 178.8 80l-175.7-33.3a127.3 127.3 0 01-50.9-22l-192-138.8a209.1 209.1 0 01-98.1-1.5A210.5 210.5 0 0169.5 522a212 212 0 01.9-77A70 70 0 0133.2 434c-60.3-38.5-20-124.2-20-124.2l96.9 48a211.1 211.1 0 0162-54.2 193 193 0 0192-27.4l3.3-.2 4.5-.2c220.7-11.4 358.6 176.7 393.2 150.7 4-3 2.4-6.7 9.2-34.5a498.1 498.1 0 0127.8-81.9 268.7 268.7 0 01-56-20c-3.7-1.8-38.3-19-62-42-51.4-50.1-52.2-129.7-52-148l164 82c-7.5-6.3-52.7-45-54-108a140.5 140.5 0 0120-74l330 368a203 203 0 01-10 58 97.6 97.6 0 01-14 30c-6.2 8.5-13 14.3-33 27.4l-148 72-38.9 97.3-120.7 75.2a259 259 0 0012.4-119c-16.5-128.7-137.3-227.7-267-226.5-92.2.9-142.4 44.8-142.4 44.8.9-.8 4.3-.7 5.5-1l15.5-2a417.6 417.6 0 0154.2-2 379.4 379.4 0 0173.5 9c27.5 6.2 54.3 16 78.8 30a235 235 0 0170.2 61.1c35.2 46 54 105.2 56 162.9 1.5 40.4-4.3 83-22 119.6zM226.6 428.2"/>
</svg>