<svg width="24" height="24" viewBox="0 0 24 24" fill="none" xmlns="http://www.w3.org/2000/svg">
<g clip-path="url(#clip0_1607_50)">
<path d="M10.5335 5.70314C11.1071 5.54946 11.4472 4.95899 11.2932 4.3843C11.1392 3.8096 10.5494 3.46831 9.97589 3.62199C9.40233 3.77567 9.06221 4.36614 9.21619 4.94084C9.37018 5.51553 9.95997 5.85683 10.5335 5.70314ZM18.8634 11.033C20.4784 12.8977 20.1942 15.6675 16.6994 17.1936C14.1477 18.3824 14.6996 19.5203 14.474 20.4224C14.4715 20.4138 14.469 20.4052 14.4665 20.3966L14.4665 20.3978L13.1926 16.0002L10.6639 6.56291C9.68778 6.77228 8.70809 6.17969 8.44628 5.20262C8.17608 4.1942 8.7729 3.1581 9.77933 2.88843C10.7858 2.61875 11.8207 3.21763 12.0909 4.22606C12.2709 4.89784 12.0661 5.58191 11.6118 6.0435L11.7811 6.67551L14.5722 6.11894L14.8563 7.17915L12.1609 8.09269L12.341 8.76481C12.3429 8.76536 12.3448 8.76591 12.3467 8.76647C13.7971 9.18986 16.0652 8.10755 16.9013 5.70144C20.2175 6.88631 22.147 5.92647 22.147 5.92647C22.147 5.92647 22.1719 7.7416 21.7089 8.45178C20.6354 8.18057 19.629 8.1625 17.3855 6.99817C16.2783 9.14753 14.4356 9.61876 13.2827 9.83329C12.8156 9.92019 12.695 10.0552 12.8277 10.5503C12.8339 10.5736 12.8354 10.5898 12.8326 10.5997L13.9882 14.9123C14.4067 15.8729 14.9905 16.4691 16.004 16.0884C19.5065 14.773 19.2823 12.9699 18.1939 11.565L17.7848 11.89L16.7004 9.9612L16.562 8.96894L17.5654 9.17423L19.2757 10.7053L18.8634 11.033V11.033ZM17.2185 8.34086L17.6194 7.55917L20.7062 8.87803L19.5748 10.3926L17.2185 8.34086ZM13.2814 10.4558L14.1921 10.2251L15.461 12.872L13.8708 13.2935L13.2814 10.4558ZM14.8717 9.93833L15.7036 9.52078L17.4181 12.0647L15.7565 12.7607L14.8717 9.93833Z" fill="black"/>
<path d="M10.5335 5.70339C9.95991 5.85707 9.37012 5.51578 9.21613 4.94108C9.06214 4.36639 9.40227 3.77592 9.97582 3.62224C10.5494 3.46855 11.1392 3.80985 11.2932 4.38455C11.4471 4.95924 11.107 5.54971 10.5335 5.70339ZM5.98453 14.4841C5.51825 16.9064 7.14926 19.1631 10.9389 18.7374C13.7431 18.491 13.8341 19.7524 14.4805 20.4209C14.4784 20.4122 14.4763 20.4035 14.4741 20.3947L14.4747 20.3959L13.3792 15.9504L10.8505 6.51315C11.8005 6.20642 12.3526 5.20337 12.0908 4.22631C11.8206 3.21788 10.7857 2.619 9.77927 2.88867C8.77284 3.15834 8.17601 4.19445 8.44622 5.20287C8.62623 5.87466 9.1456 6.36469 9.76984 6.53728L9.93919 7.16929L7.24377 8.08282L7.52785 9.14303L10.3189 8.58647L10.499 9.25859C10.4976 9.26001 10.4963 9.26144 10.4949 9.26288C9.45053 10.3547 6.94514 10.5515 5.01798 8.88579C2.73848 11.57 0.587602 11.7035 0.587602 11.7035C0.587602 11.7035 1.47355 13.2879 2.22959 13.6715C3.02366 12.8999 3.88621 12.381 5.24702 10.2509C7.28056 11.5587 9.11197 11.0455 10.2177 10.6548C10.6656 10.4965 10.8376 10.5531 10.9703 11.0482C10.9765 11.0715 10.9834 11.0863 10.9907 11.0935L12.1462 15.406C12.2641 16.4472 12.0566 17.2554 10.9886 17.4325C7.29752 18.0446 6.59016 16.371 6.83034 14.6101L7.34712 14.687L7.32182 12.4744L6.94552 11.5459L6.17919 12.2254L5.46358 14.4065L5.98453 14.4841V14.4841ZM6.06301 11.3302L5.32497 10.8537L3.31114 13.5393L5.04823 14.2852L6.06301 11.3302ZM10.5301 11.1932L9.62602 11.4488L9.85053 14.3755L11.4385 13.9455L10.5301 11.1932ZM8.8941 11.5403L7.96483 11.5946L7.75208 14.6549L9.539 14.4269L8.8941 11.5403Z" fill="black"/>
</g>
<defs>
<clipPath id="clip0_1607_50">
<rect width="24" height="24" fill="white"/>
</clipPath>
</defs>
</svg>
