<svg xmlns="http://www.w3.org/2000/svg" width="24" height="24" fill="none">
  <path fill="#000" d="M15.5732 7.3945c2.3444.0002 4.2452 1.9007 4.2452 4.2451-.0003 2.3443-1.9009 4.245-4.2452 4.2452-1.9678 0-3.6214-1.3386-4.1035-3.1534l-.5927-1.748-.0098.0029c-.2897-1.1257-1.3126-1.957-2.5274-1.957-1.4412 0-2.6093 1.169-2.6093 2.6103.0002 1.4411 1.1683 2.6094 2.6093 2.6094a2.601 2.601 0 0 0 .9522-.1797l.5976 1.5235a4.2388 4.2388 0 0 1-1.5498.292c-2.3443 0-4.2449-1.9008-4.245-4.2452 0-2.3445 1.9005-4.245 4.245-4.245 1.9064 0 3.5176 1.2558 4.0547 2.9843l.0039-.0019.6299 1.8564.0098.0293.0078.0293c.2897 1.1257 1.3125 1.957 2.5273 1.957 1.441-.0001 2.6092-1.1684 2.6094-2.6094 0-1.4411-1.1683-2.6101-2.6094-2.6103a2.6051 2.6051 0 0 0-.9511.1787l-.5957-1.5234a4.2388 4.2388 0 0 1 1.5468-.29Zm5.4991-1.4629h1.8476v1.1768h-1.8476v1.92h-1.2246v-1.92H18V5.9316h1.8477V4h1.2246v1.9316Z"/>
</svg>
