<svg xmlns="http://www.w3.org/2000/svg" fill="none" viewBox="0 0 1000 1000"><g clip-path="url(#a)"><path fill="#00CAA9" fill-rule="evenodd" d="M453.66 205.03A43 43 0 0 0 484 152.32a43 43 0 0 0-52.64-30.47 43.01 43.01 0 0 0-30.35 52.7 43 43 0 0 0 52.64 30.48ZM786.52 418.1c64.54 74.54 53.2 185.25-86.45 246.24-101.95 47.5-79.9 93-88.9 129.05l-.3-1.03v.05l-50.92-175.78L458.87 239.4c-39 8.36-78.15-15.33-88.62-54.38-10.8-40.31 13.05-81.72 53.26-92.5 40.21-10.77 81.57 13.17 92.37 53.48a75.56 75.56 0 0 1-19.14 72.64l6.77 25.26 111.52-22.23 11.36 42.38-107.7 36.5 7.2 26.87.23.06c57.95 16.93 148.58-26.32 181.98-122.5C840.6 252.37 917.7 214 917.7 214s1 72.56-17.5 100.94c-42.89-10.84-83.1-11.57-172.75-58.12-44.23 85.91-117.86 104.74-163.93 113.3-18.66 3.48-23.48 8.88-18.18 28.67.25.93.31 1.58.2 1.97l46.2 172.38c16.72 38.4 40.05 62.23 80.54 47.02 139.95-52.56 130.99-124.63 87.49-180.8l-16.35 13-43.33-77.1-5.54-39.67 40.1 8.21 68.34 61.2-16.47 13.1Zm-65.74-107.6 16.02-31.25 123.34 52.73-45.2 60.53-94.16-82.02ZM563.48 395l36.38-9.22 50.72 105.8-63.54 16.85L563.47 395Zm63.54-20.68 33.24-16.68 68.51 101.69-66.39 27.8-35.36-112.8Z" clip-rule="evenodd"/><path fill="#00CAA9" fill-rule="evenodd" d="m424.2 49.52.04.18a388.53 388.53 0 0 1 132.28-8.69c40.19 4.21 77 13.73 111.24 27.91 68.1 28.2 127.6 74.02 174.39 139.22-12.62.26-24.8-.24-36.05-2.38-45.01-55.58-101.06-93.85-164.67-117.17-31.7-11.62-66.4-19.55-103.77-21.31-37.55-1.78-78.6.78-123.89 13.7l-7.16-26.74 17.58-4.72Zm482.07 298.74.53 1.97c13.57 60 12.53 113.17 4.05 161.13-8.55 48.33-25 91.4-47.73 131.03a397.9 397.9 0 0 1-39.24 56.59c-44.37 53.3-103.96 98.81-191.7 126.61l-17.62 4.73-7.2-26.87c61.72-15.97 107.13-41.8 145.24-72.7 36.91-29.92 66.03-65.98 87.82-103.97 22.12-38.56 37.56-81.72 44.86-128.92 7.34-47.49 6.73-100.65-10.3-160.99 10.21 3.13 20.79 7.9 31.3 11.39Z" clip-rule="evenodd"/><path fill="#00CAA9" fill-rule="evenodd" d="M453.65 205.03a43 43 0 0 1-52.64-30.47 43 43 0 0 1 30.35-52.71A43.01 43.01 0 0 1 484 152.32a43.01 43.01 0 0 1-30.35 52.71ZM271.92 556c-18.62 96.8 46.56 187.02 197.99 170 112.04-9.83 115.68 40.59 141.52 67.31l-.26-1.04.02.04-43.79-177.7L466.32 237.4c37.96-12.25 60.02-52.35 49.56-91.4-10.8-40.31-52.16-64.25-92.37-53.48-40.22 10.78-64.06 52.19-53.26 92.5a75.56 75.56 0 0 0 52.9 53.34l6.76 25.26-107.7 36.5 11.36 42.39 111.52-22.24 7.2 26.87-.16.17c-41.73 43.64-141.84 51.5-218.85-15.1C142.21 439.5 56.26 444.83 56.26 444.83s35.41 63.33 65.62 78.66c31.73-30.84 66.2-51.57 120.56-136.7 81.26 52.27 154.44 31.76 198.62 16.15 17.9-6.32 24.77-4.06 30.07 15.73.25.93.52 1.52.81 1.81l46.2 172.38c4.7 41.62-3.58 73.93-46.25 81-147.49 24.45-175.76-42.45-166.17-112.83l20.65 3.08-1.02-88.44-15.04-37.12-30.62 27.16-28.58 87.18 20.81 3.1Zm3.13-126.07-29.5-19.05-80.45 107.34 69.41 29.82 40.54-118.1Zm178.49-5.45-36.12 10.2 8.98 117 63.45-17.19-36.31-110.01Zm-65.37 13.86-37.13 2.17-8.49 122.32 71.4-9.1-25.78-115.39Z" clip-rule="evenodd"/><path fill="#00CAA9" fill-rule="evenodd" d="m401.42 55.63.04.17a388.52 388.52 0 0 0-118.9 58.62c-32.7 23.74-59.81 50.39-82.38 79.79-44.88 58.47-73.5 127.9-81.42 207.77 11.06-6.1 21.36-12.62 30.04-20.1 11.18-70.64 40.59-131.8 84.02-183.8 21.64-25.91 47.73-50.13 79.2-70.34 31.64-20.32 68.47-38.63 114.15-50.08L419 50.91l-17.58 4.72ZM133.29 555.38l.53 1.97c18.24 58.74 45.73 104.27 77.06 141.56 31.57 37.6 67.35 66.66 106.85 89.62A397.94 397.94 0 0 0 380 817.9c65.08 23.97 139.44 33.6 229.32 13.8l17.63-4.72-7.2-26.86c-61.44 17.03-113.68 17.36-162.14 9.66-46.92-7.46-90.16-24.12-128.03-46.13-38.43-22.33-73.39-52-103.31-89.22-30.1-37.46-56.16-83.8-71.57-144.57-7.28 7.81-14.06 17.23-21.41 25.51Z" clip-rule="evenodd"/><path stroke="#00CAA9" stroke-width="18" d="M9 9h982v982H9z"/><path fill="#00CAA9" d="M920.83 951.38c.07-1.75.54-3.71 1.42-5.88a17.02 17.02 0 0 1 3.15-5.15 58.64 58.64 0 0 0 7.14 3.1 23 23 0 0 0 7.4 1.26c2.03 0 3.55-.35 4.57-1.05 1.05-.7 1.57-1.57 1.57-2.63 0-1.01-.38-1.9-1.15-2.67a9.01 9.01 0 0 0-3.63-2.1l-5.82-2.1a30.28 30.28 0 0 1-6.72-3.41 16.18 16.18 0 0 1-4.67-5.1 14.41 14.41 0 0 1-1.74-7.24c0-3.57.82-6.65 2.47-9.24a16.36 16.36 0 0 1 7.09-5.99c3.04-1.43 6.63-2.15 10.76-2.15a43 43 0 0 1 10.4 1.37c3.67.9 6.64 1.92 8.92 3.04.07 1.3-.1 2.71-.52 4.25-.39 1.5-.93 2.9-1.63 4.2a8.98 8.98 0 0 1-2.37 2.94 63.82 63.82 0 0 0-7.08-2.68 24.1 24.1 0 0 0-7.56-1.25c-1.44 0-2.52.33-3.26 1a3.15 3.15 0 0 0-1.05 2.36c0 .9.32 1.67.95 2.3a8.1 8.1 0 0 0 3.04 1.69l6.51 2.3a26.25 26.25 0 0 1 9.98 6.2c2.66 2.66 3.99 6.23 3.99 10.71 0 5.21-2.01 9.38-6.04 12.5-3.99 3.07-9.54 4.62-16.64 4.62-3.75 0-7.32-.51-10.71-1.53a41.55 41.55 0 0 1-8.77-3.67Zm-46.55 0c.07-1.75.54-3.71 1.42-5.88a17.02 17.02 0 0 1 3.14-5.15 58.64 58.64 0 0 0 7.14 3.1 23 23 0 0 0 7.4 1.26c2.04 0 3.56-.35 4.58-1.05 1.04-.7 1.57-1.57 1.57-2.63 0-1.01-.38-1.9-1.15-2.67a9.08 9.08 0 0 0-3.63-2.1l-5.83-2.1a30.28 30.28 0 0 1-6.71-3.41 16.18 16.18 0 0 1-4.68-5.1 14.41 14.41 0 0 1-1.73-7.24c0-3.57.82-6.65 2.47-9.24a16.36 16.36 0 0 1 7.09-5.99c3.04-1.43 6.63-2.15 10.76-2.15a43 43 0 0 1 10.4 1.37c3.67.9 6.64 1.92 8.92 3.04.07 1.3-.1 2.71-.53 4.25-.38 1.5-.92 2.9-1.63 4.2a8.98 8.98 0 0 1-2.36 2.94 63.82 63.82 0 0 0-7.08-2.68 24.1 24.1 0 0 0-7.57-1.25c-1.43 0-2.51.33-3.25 1a3.15 3.15 0 0 0-1.05 2.36c0 .9.31 1.67.94 2.3a8.1 8.1 0 0 0 3.05 1.69l6.51 2.3a26.25 26.25 0 0 1 9.98 6.2c2.65 2.66 3.98 6.23 3.98 10.71 0 5.21-2 9.38-6.03 12.5-4 3.07-9.54 4.62-16.64 4.62a37.1 37.1 0 0 1-10.72-1.53 41.55 41.55 0 0 1-8.76-3.67Zm-19.44-25.52c.04-2.7-.09-4.99-.37-6.88-.24-1.88-.8-3.32-1.68-4.3-.87-.98-2.22-1.47-4.04-1.47-2.45 0-4.15 1.24-5.1 3.73-.9 2.48-1.36 6.47-1.36 11.97 0 5.56.77 9.43 2.31 11.6s3.8 3.25 6.78 3.25c2.06 0 4.1-.43 6.09-1.3 2-.92 3.81-1.95 5.46-3.1 1.3.73 2.55 2.04 3.78 3.93a16.65 16.65 0 0 1 2.41 5.2 25.2 25.2 0 0 1-9.08 5.88 30.27 30.27 0 0 1-11.34 2.2c-3.78 0-7.1-.64-9.98-1.94a20.06 20.06 0 0 1-7.24-5.62 25.03 25.03 0 0 1-4.46-8.71c-.98-3.4-1.47-7.2-1.47-11.4 0-5.07.66-9.37 2-12.9a23.05 23.05 0 0 1 5.45-8.62c2.28-2.2 4.8-3.81 7.56-4.83a24.8 24.8 0 0 1 8.5-1.52c2.95 0 5.66.42 8.14 1.26a19.5 19.5 0 0 1 6.51 3.57 16.05 16.05 0 0 1 4.3 5.51 16.3 16.3 0 0 1 1.53 7.09c0 2.76-.77 4.8-2.3 6.09a8.61 8.61 0 0 1-5.73 1.89c-1.4 0-2.6-.04-3.62-.1a32.19 32.19 0 0 1-3.05-.48Zm-106.2 14.81c0-4.2.98-7.65 2.94-10.34a17.52 17.52 0 0 1 7.67-5.99 26.78 26.78 0 0 1 10.18-1.94c1.58 0 3.55.03 5.93.1 2.42.07 4.59.3 6.51.68v10.4c-1.5-.35-3.32-.54-5.46-.58-2.1-.07-3.85-.1-5.25-.1-2.3 0-3.99.63-5.04 1.89a7.24 7.24 0 0 0-1.52 4.78c0 1.4.44 2.57 1.31 3.51a4.65 4.65 0 0 0 3.52 1.37c2.1 0 4.24-.75 6.4-2.26a17.84 17.84 0 0 0 5.52-6.2l2.3 10.4a49.67 49.67 0 0 1-4.66 4.78 23.11 23.11 0 0 1-6.15 3.83 20.02 20.02 0 0 1-8.24 1.58c-3.6 0-6.6-.81-8.98-2.42a15.23 15.23 0 0 1-5.25-6.04 17.32 17.32 0 0 1-1.73-7.45Zm47.62 6.77c-.28 1.43-.93 3-1.94 4.67a13.9 13.9 0 0 1-3.05 3.73c-3.08-.07-5.63-.77-7.66-2.1-2-1.33-3.54-2.96-4.62-4.88a18.84 18.84 0 0 1-2.05-5.73v-22.47c0-2.2-.56-3.86-1.68-4.98-1.09-1.12-2.82-1.68-5.2-1.68-2.24 0-4.69.37-7.35 1.1-2.66.7-5.37 1.45-8.14 2.26a14.35 14.35 0 0 1-2.73-5.15 31.68 31.68 0 0 1-1.2-6.25 57.25 57.25 0 0 1 7.82-2.46c2.87-.7 5.72-1.23 8.56-1.58 2.83-.38 5.39-.57 7.66-.57 3.05 0 5.99.57 8.82 1.73a15.1 15.1 0 0 1 7.04 5.62c1.85 2.62 2.78 6.14 2.78 10.55v21.37c0 1.5.23 2.83.68 3.99a6.64 6.64 0 0 0 2.26 2.83Zm-56.9 7.56c-1.15.21-2.47.37-3.94.47a58.27 58.27 0 0 1-8.5 0c-1.47-.1-2.8-.26-4-.47v-34.75c0-1.75-.36-3.2-1.1-4.36-.7-1.16-1.99-1.74-3.88-1.74h-4.15L702.2 955a98.1 98.1 0 0 1-6.14.47c-2.17.1-4.29.16-6.35.16-3.12 0-5.57-.5-7.35-1.52-1.79-1.05-3.14-3.15-4.05-6.3l-12.54-43.94c1.43-.6 2.95-1.1 4.56-1.53a16.9 16.9 0 0 1 4.47-.68c2.59 0 4.65.58 6.2 1.73 1.53 1.12 2.63 3.1 3.3 5.94l4.7 19.57c.32 1.36.62 2.83.9 4.4.31 1.58.57 3.1.78 4.58l.63 3.77c.1.57.46.85 1.05.85l9.09-39.33a17.8 17.8 0 0 1 3.93-.68 54.5 54.5 0 0 1 4.47-.21h18.16c3.43 0 6.18 1.14 8.24 3.41 2.07 2.28 3.1 5.29 3.1 9.03V955Zm-19.58-67.15c0-2.17.4-4.22 1.2-6.14.92-.46 2.09-.84 3.52-1.16a20.02 20.02 0 0 1 8.61 0c1.5.32 2.66.7 3.47 1.16.42.98.72 2.01.9 3.1a15.63 15.63 0 0 1-.9 9.13c-.8.46-1.96.84-3.47 1.16-1.47.31-2.9.47-4.3.47-1.44 0-2.9-.14-4.41-.42a11.4 11.4 0 0 1-3.41-1.2 15.77 15.77 0 0 1-1.21-6.1Zm-83.04 51.98c0 1.68.27 3.2.8 4.56a7.1 7.1 0 0 0 2.14 3.05c-.31 1.43-.98 3-2 4.67a13.22 13.22 0 0 1-2.98 3.73c-4.62-.1-8.1-1.66-10.45-4.67-2.35-3.05-3.52-6.76-3.52-11.13v-61.58l.74-.74h6.4c3.22 0 5.5.74 6.83 2.2 1.36 1.48 2.04 4.03 2.04 7.67v52.24Zm-46.72-10.4c0-6.02.94-11.1 2.83-15.22 1.93-4.17 4.48-7.32 7.67-9.45 3.18-2.14 6.7-3.2 10.55-3.2 3.64 0 6.86.75 9.66 2.25 2.84 1.5 5.4 2.96 7.72 4.36l-2.63 11.66a42.95 42.95 0 0 0-6.2-4.31c-2.1-1.19-4-1.78-5.71-1.78-1.68 0-3.05.64-4.1 1.94-1.05 1.3-1.82 3.11-2.3 5.46a44.74 44.74 0 0 0-.7 8.4 33 33 0 0 0 .8 7.93c.56 2.02 1.3 3.53 2.25 4.51a4.6 4.6 0 0 0 3.26 1.42c1.12 0 2.41-.33 3.88-1 1.47-.7 2.93-2 4.36-3.88 1.44-1.9 2.6-4.7 3.52-8.4l3.67 9.29a17.7 17.7 0 0 1-3.2 8.19 21.88 21.88 0 0 1-7.03 6.45 18.19 18.19 0 0 1-9.45 2.53c-4.27 0-7.8-1.16-10.6-3.47-2.77-2.31-4.84-5.5-6.2-9.56a44.63 44.63 0 0 1-2.05-14.12Zm-41.8 4.67v-11.28h19.8v-1.21c0-1.61-.24-3.08-.7-4.41a6.77 6.77 0 0 0-2.2-3.25 6.05 6.05 0 0 0-3.99-1.27c-2.55 0-4.35 1.06-5.4 3.16-1.02 2.1-1.53 5.33-1.53 9.7v4.94c0 2.42.21 4.66.63 6.72a8.99 8.99 0 0 0 2.68 4.94c1.37 1.26 3.45 1.89 6.25 1.89 2.38 0 4.7-.3 6.98-.9a54.38 54.38 0 0 0 6.62-2.25 13.52 13.52 0 0 1 2.94 4.57 23.11 23.11 0 0 1 1.47 5.14 29.34 29.34 0 0 1-9.56 4.41 40.33 40.33 0 0 1-11.13 1.58c-4.58 0-8.4-.78-11.44-2.32a18.7 18.7 0 0 1-7.14-6.19c-1.75-2.59-3-5.51-3.73-8.77a48.56 48.56 0 0 1-1.05-10.13c0-5.28.79-10.04 2.36-14.28a21.42 21.42 0 0 1 7.61-10.13c3.47-2.49 7.98-3.73 13.55-3.73 4.58 0 8.5.98 11.76 2.94a19.39 19.39 0 0 1 7.5 7.98 24.18 24.18 0 0 1 2.63 11.34c0 2.35-.1 4.3-.31 5.88a32.57 32.57 0 0 1-1.1 4.94h-33.5Zm-20.07 5.73c0 1.68.27 3.2.8 4.56a7.1 7.1 0 0 0 2.14 3.05c-.31 1.43-.98 3-1.99 4.67a13.22 13.22 0 0 1-3 3.73c-4.61-.1-8.1-1.66-10.44-4.67-2.34-3.05-3.52-6.76-3.52-11.13v-61.58l.74-.74h6.4c3.22 0 5.5.74 6.83 2.2 1.36 1.48 2.04 4.03 2.04 7.67v52.24Zm-46.72-10.4c0-6.02.94-11.1 2.83-15.22 1.93-4.17 4.49-7.32 7.67-9.45 3.19-2.14 6.7-3.2 10.55-3.2 3.64 0 6.86.75 9.66 2.25 2.84 1.5 5.41 2.96 7.72 4.36l-2.63 11.66a42.95 42.95 0 0 0-6.19-4.31c-2.1-1.19-4-1.78-5.72-1.78-1.68 0-3.05.64-4.1 1.94-1.05 1.3-1.82 3.11-2.3 5.46a44.74 44.74 0 0 0-.69 8.4 33 33 0 0 0 .79 7.93c.56 2.02 1.31 3.53 2.25 4.51a4.6 4.6 0 0 0 3.26 1.42 9.6 9.6 0 0 0 3.89-1c1.46-.7 2.92-2 4.35-3.88 1.44-1.9 2.61-4.7 3.52-8.4l3.68 9.29a17.7 17.7 0 0 1-3.2 8.19 21.88 21.88 0 0 1-7.04 6.45 18.19 18.19 0 0 1-9.45 2.53c-4.27 0-7.8-1.16-10.6-3.47-2.77-2.31-4.84-5.5-6.2-9.56a44.63 44.63 0 0 1-2.05-14.12Zm-53.23 11.24c0-4.2.99-7.65 2.95-10.34a17.52 17.52 0 0 1 7.66-5.99A26.78 26.78 0 0 1 449 922.4c1.57 0 3.55.03 5.93.1 2.42.07 4.58.3 6.51.68v10.4c-1.5-.35-3.32-.54-5.46-.58-2.1-.07-3.85-.1-5.25-.1-2.31 0-3.99.63-5.04 1.89a7.24 7.24 0 0 0-1.52 4.78c0 1.4.44 2.57 1.31 3.51a4.65 4.65 0 0 0 3.52 1.37c2.1 0 4.23-.75 6.4-2.26 2.2-1.5 4.05-3.57 5.52-6.2l2.3 10.4a49.69 49.69 0 0 1-4.67 4.78 23.1 23.1 0 0 1-6.14 3.83 20.02 20.02 0 0 1-8.24 1.58c-3.6 0-6.6-.81-8.98-2.42a15.23 15.23 0 0 1-5.25-6.04 17.32 17.32 0 0 1-1.73-7.45Zm47.63 6.77c-.28 1.43-.93 3-1.95 4.67a13.9 13.9 0 0 1-3.04 3.73c-3.08-.07-5.64-.77-7.67-2.1a14.3 14.3 0 0 1-4.62-4.88 18.84 18.84 0 0 1-2.05-5.73v-22.47c0-2.2-.56-3.86-1.68-4.98-1.08-1.12-2.81-1.68-5.2-1.68-2.23 0-4.68.37-7.34 1.1-2.66.7-5.38 1.45-8.14 2.26a14.35 14.35 0 0 1-2.73-5.15 31.68 31.68 0 0 1-1.2-6.25 57.26 57.26 0 0 1 7.81-2.46c2.88-.7 5.73-1.23 8.56-1.58 2.84-.38 5.4-.57 7.67-.57 3.04 0 5.98.57 8.82 1.73a15.1 15.1 0 0 1 7.03 5.62c1.86 2.62 2.78 6.14 2.78 10.55v21.37c0 1.5.23 2.83.69 3.99a6.64 6.64 0 0 0 2.25 2.83Zm-53.97-18.64c0 5.6-.93 10.49-2.78 14.65a21.7 21.7 0 0 1-8.2 9.71c-3.6 2.28-8.03 3.42-13.28 3.42-5.32 0-9.78-1.16-13.38-3.47a21.38 21.38 0 0 1-8.14-9.71c-1.82-4.17-2.73-9.03-2.73-14.6 0-5.63.9-10.51 2.73-14.64a21.38 21.38 0 0 1 8.19-9.66c3.6-2.32 8.05-3.47 13.33-3.47 5.32 0 9.77 1.15 13.34 3.47a21.38 21.38 0 0 1 8.14 9.7c1.85 4.14 2.78 9 2.78 14.6Zm-31.66 0c0 2.87.16 5.48.47 7.83a12.26 12.26 0 0 0 2.1 5.61c1.05 1.37 2.66 2.05 4.83 2.05 2.14 0 3.73-.68 4.78-2.05a11.53 11.53 0 0 0 2.1-5.62c.35-2.34.53-4.95.53-7.82 0-2.9-.18-5.53-.53-7.87-.31-2.35-1.01-4.2-2.1-5.57-1.05-1.4-2.64-2.1-4.78-2.1-2.17 0-3.78.7-4.83 2.1a11.9 11.9 0 0 0-2.1 5.57 59.52 59.52 0 0 0-.47 7.87Zm-22.28 14.23a23.53 23.53 0 0 1 1.31 7.77c0 .6-.03 1.23-.1 1.89a6.77 6.77 0 0 1-.32 1.78c-1.57.28-3.36.53-5.35.74-1.96.21-3.94.31-5.94.31-4.76 0-8.13-1.17-10.13-3.51-1.96-2.38-2.94-6.08-2.94-11.08v-62.47l.74-.74h6.4c3.22 0 5.5.74 6.83 2.2 1.36 1.48 2.04 4.03 2.04 7.67v50.45c0 1.61.35 2.86 1.05 3.73.7.84 1.88 1.26 3.52 1.26h2.89Zm-91.12-8.93v-11.28h19.79v-1.21c0-1.61-.23-3.08-.68-4.41a6.77 6.77 0 0 0-2.2-3.25 6.05 6.05 0 0 0-4-1.27c-2.55 0-4.35 1.06-5.4 3.16-1.02 2.1-1.53 5.33-1.53 9.7v4.94c0 2.42.21 4.66.63 6.72a8.99 8.99 0 0 0 2.68 4.94c1.37 1.26 3.45 1.89 6.25 1.89 2.38 0 4.7-.3 6.98-.9a54.38 54.38 0 0 0 6.62-2.25 13.52 13.52 0 0 1 2.94 4.57 23.11 23.11 0 0 1 1.47 5.14 29.34 29.34 0 0 1-9.56 4.41 40.33 40.33 0 0 1-11.13 1.58c-4.59 0-8.4-.78-11.45-2.32a18.7 18.7 0 0 1-7.13-6.19c-1.75-2.59-3-5.51-3.73-8.77a48.56 48.56 0 0 1-1.05-10.13c0-5.28.78-10.04 2.36-14.28a21.42 21.42 0 0 1 7.61-10.13c3.47-2.49 7.98-3.73 13.55-3.73 4.58 0 8.5.98 11.76 2.94a19.39 19.39 0 0 1 7.5 7.98 24.18 24.18 0 0 1 2.63 11.34c0 2.35-.1 4.3-.31 5.88a32.57 32.57 0 0 1-1.1 4.94h-33.5Zm-16.82-23.94a6.69 6.69 0 0 0-2.15 3.05 12.48 12.48 0 0 0-.79 4.51v27.73c0 4.9-.22 8.94-.68 12.12a33.49 33.49 0 0 1-1.84 7.82 17.85 17.85 0 0 1-11.13 10.92 32.99 32.99 0 0 1-11.44 1.9 56.2 56.2 0 0 1-10.3-1 54.32 54.32 0 0 1-9.44-2.47c0-1.92.38-4.04 1.15-6.35a16.6 16.6 0 0 1 2.9-5.51c2.23.98 4.58 1.75 7.03 2.3a32 32 0 0 0 7.14.85c2.55 0 4.6-.44 6.14-1.32a7.67 7.67 0 0 0 3.41-3.73 13.7 13.7 0 0 0 1.05-5.61V917.5c0-4.34 1.17-8.03 3.52-11.07 2.34-3.05 5.83-4.6 10.45-4.68 1.01.81 2.04 2.05 3.1 3.73a11.95 11.95 0 0 1 1.88 4.67Zm-49.77 18.75c0-6.02.95-11.1 2.84-15.23 1.92-4.16 4.48-7.31 7.66-9.45a18.7 18.7 0 0 1 10.56-3.2c3.4 0 6.3.56 8.71 1.68a19.56 19.56 0 0 1 5.99 4.15 26.2 26.2 0 0 1 3.72 4.67l-2.67 13.39c-2.03-3.78-4.22-6.67-6.57-8.66-2.3-2.03-4.4-3.05-6.3-3.05-1.71 0-3.1.65-4.14 1.94-1.05 1.26-1.82 3.08-2.31 5.46a44.74 44.74 0 0 0-.69 8.4c0 4.87.58 8.4 1.74 10.6 1.19 2.18 2.67 3.26 4.46 3.26 2.1 0 4.15-.72 6.14-2.15 2.03-1.44 3.73-3.57 5.1-6.4l2.3 11.39a20.92 20.92 0 0 1-10.6 9.03 19.16 19.16 0 0 1-7.04 1.31c-4.27 0-7.8-1.15-10.6-3.46-2.8-2.32-4.88-5.5-6.25-9.56a44.62 44.62 0 0 1-2.05-14.12ZM157 940.67c0-4.2.97-7.65 2.93-10.34a17.52 17.52 0 0 1 7.67-5.99 26.78 26.78 0 0 1 10.18-1.94c1.58 0 3.55.03 5.93.1 2.42.07 4.59.3 6.51.68v10.4c-1.5-.35-3.32-.54-5.46-.58-2.1-.07-3.85-.1-5.25-.1-2.3 0-3.99.63-5.04 1.89a7.24 7.24 0 0 0-1.52 4.78c0 1.4.44 2.57 1.31 3.51a4.65 4.65 0 0 0 3.52 1.37c2.1 0 4.24-.75 6.4-2.26a17.84 17.84 0 0 0 5.52-6.2l2.3 10.4a49.69 49.69 0 0 1-4.66 4.78 23.1 23.1 0 0 1-6.15 3.83 20.02 20.02 0 0 1-8.24 1.58c-3.6 0-6.6-.81-8.98-2.42a15.23 15.23 0 0 1-5.25-6.04 17.32 17.32 0 0 1-1.73-7.45Zm47.6 6.77c-.27 1.43-.92 3-1.93 4.67a13.9 13.9 0 0 1-3.05 3.73c-3.08-.07-5.63-.77-7.66-2.1-2-1.33-3.54-2.96-4.62-4.88a18.84 18.84 0 0 1-2.05-5.73v-22.47c0-2.2-.56-3.86-1.68-4.98-1.09-1.12-2.82-1.68-5.2-1.68-2.24 0-4.69.37-7.35 1.1-2.66.7-5.37 1.45-8.14 2.26a14.35 14.35 0 0 1-2.73-5.15 31.68 31.68 0 0 1-1.2-6.25 57.26 57.26 0 0 1 7.82-2.46c2.87-.7 5.72-1.23 8.56-1.58 2.83-.38 5.39-.57 7.66-.57 3.05 0 5.99.57 8.82 1.73a15.1 15.1 0 0 1 7.04 5.62c1.85 2.62 2.78 6.14 2.78 10.55v21.37c0 1.5.23 2.83.68 3.99a6.64 6.64 0 0 0 2.26 2.83ZM82.06 901.87c3.12 0 5.48 1.07 7.1 3.2 1.64 2.14 2.46 5.04 2.46 8.72V955a36.9 36.9 0 0 1-3.94.47 58.27 58.27 0 0 1-8.5 0c-1.47-.1-2.8-.26-4-.47v-52.4l.74-.73h6.14Zm21.21 21.52c0-2.8-.5-4.67-1.52-5.61a4.66 4.66 0 0 0-3.2-1.42 8.9 8.9 0 0 0-4.78 1.78 22.43 22.43 0 0 0-4.51 4.26 17.64 17.64 0 0 0-2.94 4.93v-14.17a65.68 65.68 0 0 1 5.4-5.41c2-1.78 4.13-3.24 6.4-4.36a15.68 15.68 0 0 1 7.2-1.73c3.05 0 5.64.72 7.77 2.15a13.17 13.17 0 0 1 4.94 5.88 20.5 20.5 0 0 1 1.68 8.5V955a36.9 36.9 0 0 1-3.94.47 58.25 58.25 0 0 1-8.5 0c-1.48-.1-2.8-.26-4-.47v-31.6Zm28.1-.1c0-2.8-.55-4.65-1.64-5.56a4.94 4.94 0 0 0-3.25-1.37c-1.4 0-2.92.6-4.57 1.78a23.46 23.46 0 0 0-4.57 4.41 25.02 25.02 0 0 0-3.36 5.36v-15.17a34.92 34.92 0 0 1 5.52-5.36 30.56 30.56 0 0 1 6.93-4.14 18.65 18.65 0 0 1 7.4-1.58c3.08 0 5.65.74 7.72 2.2a13.2 13.2 0 0 1 4.67 5.94 22.22 22.22 0 0 1 1.57 8.6v23.48c0 2.06.2 3.99.58 5.77.39 1.75 1.07 3.3 2.05 4.67a15.48 15.48 0 0 1-4.52 2.52c-1.75.67-3.65 1-5.72 1-3.29 0-5.58-.88-6.88-2.63-1.3-1.75-1.94-4.26-1.94-7.56V923.3ZM62.81 955c-1.15.21-2.47.37-3.94.47a58.26 58.26 0 0 1-8.5 0c-1.44-.1-2.77-.26-3.99-.47v-34.75c0-1.75-.37-3.2-1.1-4.36-.7-1.16-1.98-1.74-3.84-1.74h-1.57a21.65 21.65 0 0 1-.68-5.56c0-.91.05-1.87.15-2.89.1-1.05.28-2.05.53-2.99a70.9 70.9 0 0 1 4.93-.37 77.6 77.6 0 0 1 4.31-.16h2.26c3.5 0 6.28 1.14 8.34 3.42 2.07 2.24 3.1 5.28 3.1 9.13V955Zm-19.58-67.15c0-2.17.4-4.22 1.2-6.14.92-.46 2.09-.84 3.52-1.16a20.52 20.52 0 0 1 8.67 0c1.5.32 2.66.7 3.46 1.16a17.6 17.6 0 0 1 1.2 6.14c0 2.14-.4 4.17-1.2 6.1-.8.45-1.96.83-3.46 1.15a21.26 21.26 0 0 1-8.72.05 11.97 11.97 0 0 1-3.46-1.2 15.77 15.77 0 0 1-1.21-6.1Z"/></g><defs><clipPath id="a"><path fill="#fff" d="M0 0h1000v1000H0z"/></clipPath></defs></svg>