<svg xmlns="http://www.w3.org/2000/svg" fill="none" viewBox="0 0 499 175"><path fill="#00CAA9" d="M107.4 155.3a69.1 69.1 0 0 1-72-28.3l-.7-1.1a69.7 69.7 0 0 1-8.4-17.5l-.4-1.1.6-.8.8-.9 2.5-3 .9 2.9A62.3 62.3 0 0 0 50 135.8a63.7 63.7 0 0 0 76.3 6.4 64.6 64.6 0 0 0 28.4-73l3.6 1.3 1.2.4.9.4.2 1a70.6 70.6 0 0 1 1.5 19.4l-.1 1.4a69.1 69.1 0 0 1-54.5 62.1Z"/><path fill="#00CAA9" d="M108.4 148c-.5-.4-1-1.3-2.7-3.6a15 15 0 0 0-3.9-4.3c-3.6-2.8-9.3-3.8-17.3-3.2-3 .3-4.4.4-6 .4-7 0-13-1.4-17.7-4.3a21.8 21.8 0 0 1-10.6-14.6 26 26 0 0 1-.2-11l-.5-.1c-.8 0-2.7-.4-2.9-.5l.3-1.3 2.6-7.8 1.2-3.9.8-2.2 2.7-2.4c1.8-1.6 2.7-2.4 2.8-2.3l2 5 .6 1.5v1l.1 9v5.2c0 .2-.2.2-2 0l-1.5-.3-.1.3-.2 4.1c0 3.3.8 6.4 2.6 9.1 1.4 2 3.3 3.6 5.5 4.6 5 2.3 11.6 2.6 20.8 1.2a10 10 0 0 0 5.8-3c.5-.5 1.3-2 1.6-2.7.5-1.7.8-3.8.7-6.4v-1.3l-4-14.8-4.4-16.1c-.7-2-1.1-2.6-2.1-2.9-.5 0-.6 0-2.6.5-3.2 1-6.4 1.8-9.7 2.6a34.9 34.9 0 0 1-23.8-4.7l-1.1-.7-.3.4A101 101 0 0 1 34 92.7a122.3 122.3 0 0 1-9.2 8.6l-.5.4-.7-.4a12 12 0 0 1-2.3-1.8A42.7 42.7 0 0 1 12.8 88l1-.3c.6 0 1.8-.4 2.8-.6a50 50 0 0 0 19.6-11.2l1.8-1.7 2.6-2.5a62.3 62.3 0 0 0 3-3.4c3 2.6 6.3 4.6 10 6.1A32.2 32.2 0 0 0 72 76c3.5-.8 6.1-2.1 8.5-4.1l1-.8-.7-2.3-.7-2.2-1.2.2-7.2 1.4-8.2 1.7-2.6.5c-.1 0-2.1-7.5-2-7.6l13.8-4.7 4.3-1.4.5-.2-1.1-4.2-.7-.2A13.3 13.3 0 0 1 72.3 29c1.3-1 2.3-1.4 4.3-2 1.9-.5 3-.6 4.6-.4a13.3 13.3 0 0 1 11.2 17.3c-.5 1.6-1.5 3.4-2.5 4.5l-.6.6 1.2 4.1h.5l4.4-1 14.3-2.7c.1 0 .4.8 1.2 3.7.7 2.9 1 3.7.8 3.8l-2.4.9a673.5 673.5 0 0 0-14.9 5l-1.2.4.6 2.2.6 2.3 1.2.2a23.7 23.7 0 0 0 14.9-2.9 33.3 33.3 0 0 0 15.3-18.6l1.5.5 2.8 1 3.4.9 2.5.5a50 50 0 0 0 26.2-1.2 60.6 60.6 0 0 1-1.6 14.3 12 12 0 0 1-1 2.6l-.5.8-.7-.2-3.3-.7c-3.5-.8-5.9-1.3-7.5-1.8l-1.4-.4a96 96 0 0 1-16.5-6.8h-.6l-.6 1a35 35 0 0 1-18.3 15.8c-1 .5-5.6 1.8-9.7 2.8-2 .5-2.2.5-2.5.8-.8.7-.9 1.4-.4 3.6.1.8 1.7 7 4.2 16.2l4 14.8.6 1c1.6 3.2 3.2 5.1 5.1 6.2 1.8 1 3.7 1.3 6 .9a50 50 0 0 0 11-4.8c6-3.5 9.7-7.7 10.6-12.1.6-3 .3-5.5-1-8.9-.6-1.4-2.3-4.3-3.3-5.5l-.2-.3-1.2 1c-1.5 1.2-1.5 1.2-1.7 1l-.6-.8-2-3.7-4.4-7.8-.5-1-.2-1.4-.8-5.5 3.6.6 3.5.7 1.8 1.6c1 1 2.4 2.1 3 2.8l6.1 5.4c.8.7 1 .9.9 1a22.9 22.9 0 0 1-2.6 2.2l.7 1c2 2.5 3.6 5.5 4.6 8.6 1.2 3.9 1.4 7.3.7 11.2-1 5-4 10-8.4 14a43.6 43.6 0 0 1-12.8 8c-7.3 3.4-11.7 7-13.5 11.3a18 18 0 0 0-1.2 5.7c-.3 3.8-.5 5.2-.7 5.2l-.5-.5v.1ZM83.2 46A7.4 7.4 0 0 0 80 32c-.8 0-1 0-2.2.3-1.1.3-1.4.4-2 .8a7.3 7.3 0 0 0-2.7 9.4 7.8 7.8 0 0 0 7 4.1c1-.1 2.2-.4 3.2-.9Z"/><path fill="#00CAA9" d="M77 106.7c-.2-.1-.3-1-.5-4.8l-.7-8.2-.3-4.2-.2-2.6v-.5l.6-.3a87 87 0 0 1 3.2-1l2.5-.6.2.2c0 .1.6 1.5 1 3.1a639.9 639.9 0 0 0 5.2 15.8c-.1.2-11 3.2-11 3.1Zm30.7-8.2-3 .6-1.5-6.6a942.7 942.7 0 0 0-2.6-12.9v-.2l2.5-.7 3.3-.7.7-.2.2.5 1.1 2.3 1.9 3.9 3.5 7.5c1.7 3.4 2 4.2 2 4.3l-2.6.8-5.5 1.4Zm-35.6 9-9.1 1-.6.2.5-8.7.2-3.6.3-3.5.3-4.1.1-1.5 2.4-.2 3.3-.2h1l1.8 8.1 2.2 10c.3 1.2.4 2 .3 2l-2.7.5Zm45.6-12-.7-2-3-9.6-2.4-8 .8-.5 2.9-1.4 2.2-1 .9 1.2 2.3 3.4 2 3 2 3c3.7 5.5 4.8 7 4.7 7.2l-.6.2-3.2 1.4-5 2a60.8 60.8 0 0 0-2.9 1.1ZM42 105.3l-3.6-1.6-3.3-1.3a37 37 0 0 1-3.4-1.6l1-1.4 3.7-5 1.3-1.6L45 83l.7-1 .3.2 2.6 1.7 2.4 1.5-.2.7-1.6 4.6-2 5.8a234.4 234.4 0 0 1-3.3 9.5l-1.9-.8ZM144 79l-2.8-2.5-4.3-3.7-4.8-4.2-3.7-3.2-.5-.5 1.3-2.5 1.4-2.8.2-.3 1 .5 2.5 1 8.8 3.8 2 .8 7.1 3.2-2.1 3-2.2 2.8-3.6 4.8s-.2 0-.3-.2ZM23.3 80.8a66 66 0 0 1 14.8-37l1.5-1.7A70.4 70.4 0 0 1 116 21.7l2.2.8a74 74 0 0 1 15.3 8.4l3.8 3a70.4 70.4 0 0 1 12.1 13.3c0 .1-3.5 0-5.4-.2l-1-.1-.5-.7a65 65 0 0 0-25.7-18.9l-1.8-.7-1.9-.6a64.2 64.2 0 0 0-70 19.8l-1.2 1.5a64.2 64.2 0 0 0-13.3 30.2 32.9 32.9 0 0 1-5.2 3.3Zm157.3 5.5c0-3.4.7-6.1 2.3-8.3a15 15 0 0 1 6.2-4.9 23 23 0 0 1 8.3-1.5h4.8c2 .1 3.7.3 5.3.6v8.4c-1.3-.3-2.7-.4-4.5-.5h-4.2c-1.9 0-3.2.5-4.1 1.5a6 6 0 0 0-1.2 3.9c0 1 .3 2 1 2.8a4 4 0 0 0 2.9 1.1 9 9 0 0 0 5.2-1.8c1.8-1.2 3.2-3 4.4-5l2 8.4a40.2 40.2 0 0 1-3.8 3.8 16.6 16.6 0 0 1-11.6 4.4c-3 0-5.4-.6-7.3-2a13.2 13.2 0 0 1-5.6-10.8Zm38.5 5.5a11 11 0 0 1-1.6 3.8 9.8 9.8 0 0 1-2.4 3c-2.5 0-4.6-.6-6.2-1.7-1.7-1-3-2.4-3.8-4-.8-1.5-1.4-3-1.6-4.6V70.2c0-1.8-.5-3.2-1.4-4-.9-1-2.3-1.4-4.2-1.4a23 23 0 0 0-6 .9l-6.5 1.8a12 12 0 0 1-2.3-4.2c-.5-1.7-.8-3.4-1-5a46.3 46.3 0 0 1 13.3-3.3c2.3-.3 4.4-.5 6.2-.5 2.5 0 4.9.5 7.2 1.4 2.3 1 4.2 2.4 5.7 4.6 1.5 2 2.2 5 2.2 8.5v17.3a8 8 0 0 0 .6 3.2c.4 1 1 1.7 1.8 2.3Zm4.5-15c0-4.8.8-9 2.3-12.3a18 18 0 0 1 6.2-7.6c2.6-1.8 5.5-2.6 8.6-2.6 2.7 0 5 .4 7 1.3a17 17 0 0 1 7.9 7.2l-2.2 10.8a24 24 0 0 0-5.3-7c-1.9-1.7-3.6-2.5-5-2.5-1.5 0-2.6.5-3.4 1.6a10 10 0 0 0-2 4.4 36.2 36.2 0 0 0 .2 13.2c.4 1.7 1 2.9 1.8 3.7.7.8 1.6 1.1 2.6 1.1 1.6 0 3.3-.5 5-1.7 1.6-1.2 3-2.9 4-5.2l2 9.3a17.2 17.2 0 0 1-8.7 7.2c-1.8.7-3.7 1.1-5.7 1.1a13 13 0 0 1-8.6-2.8 17.5 17.5 0 0 1-5-7.7 36.1 36.1 0 0 1-1.7-11.5Zm24.9-9.2c0-3.5 1-6.5 2.8-9 2-2.4 4.8-3.7 8.5-3.7.8.6 1.6 1.6 2.5 3 .8 1.3 1.3 2.6 1.5 3.8-.7.5-1.2 1.3-1.7 2.4-.4 1.1-.6 2.3-.6 3.7v48l-.6.5h-5.2c-2.6 0-4.4-.6-5.5-1.8-1.1-1.2-1.7-3.2-1.7-6.2V67.6ZM308 85.8c0 1.4.3 2.6.7 3.7.4 1.1 1 2 1.7 2.5a11 11 0 0 1-1.5 3.7c-.9 1.3-1.7 2.3-2.5 3-3.8-.2-6.7-1.4-8.6-4a14 14 0 0 1-3-9V55.5a28.1 28.1 0 0 1 6.6-.5 46.6 46.6 0 0 1 6.6.5v30.3Zm-36.5-19.6c0-1.7-.1-3.3-.5-4.7a9.3 9.3 0 0 0-1.6-3.8 13.3 13.3 0 0 1 8.3-2.8c2.7 0 4.5.7 5.5 2a10 10 0 0 1 1.6 6.2v18c0 2 .3 3.4.8 4.3.5 1 1.4 1.4 2.9 1.4.8 0 1.8-.3 3-.7 1.1-.5 2.3-1.3 3.4-2.3a14 14 0 0 0 3-4.3v11.6c-2 2-4.1 3.7-6.5 5.3a14 14 0 0 1-8 2.3c-2.6 0-4.7-.6-6.5-1.9a12 12 0 0 1-4-5.4 19 19 0 0 1-1.4-7.8V66.2ZM316 86.3c0-3.4.7-6.1 2.3-8.3a15 15 0 0 1 6.2-4.9 23 23 0 0 1 8.3-1.5h4.8c2 .1 3.7.3 5.3.6v8.4c-1.3-.3-2.7-.4-4.5-.5h-4.2c-1.9 0-3.2.5-4.1 1.5a6 6 0 0 0-1.2 3.9c0 1 .3 2 1 2.8a4 4 0 0 0 2.9 1.1 9 9 0 0 0 5.2-1.8c1.8-1.2 3.2-3 4.4-5l1.9 8.4a40.3 40.3 0 0 1-3.8 3.8 16.6 16.6 0 0 1-11.6 4.4c-3 0-5.4-.6-7.3-2a13.2 13.2 0 0 1-5.6-10.8Zm38.5 5.5a11 11 0 0 1-1.6 3.8 9.8 9.8 0 0 1-2.4 3c-2.5 0-4.6-.6-6.2-1.7-1.7-1-2.9-2.4-3.8-4-.8-1.5-1.4-3-1.6-4.6V70.2c0-1.8-.5-3.2-1.4-4-.9-1-2.3-1.4-4.2-1.4a23 23 0 0 0-6 .9l-6.5 1.8a12 12 0 0 1-2.3-4.2c-.5-1.7-.8-3.4-1-5a46.3 46.3 0 0 1 13.3-3.3c2.3-.3 4.4-.5 6.2-.5 2.5 0 4.9.5 7.2 1.4 2.3 1 4.2 2.4 5.7 4.6 1.5 2 2.2 5 2.2 8.5v17.3a8 8 0 0 0 .6 3.2c.4 1 1 1.7 1.8 2.3Zm13-36.8a7 7 0 0 1 5.7 2.6 11 11 0 0 1 2 7V98a29.9 29.9 0 0 1-6.6.5 48.4 48.4 0 0 1-6.7-.5V55.5l.6-.6h5Zm17.2 17.5c0-2.3-.4-3.8-1.3-4.6a3.8 3.8 0 0 0-2.5-1.1c-1.3 0-2.6.5-4 1.4a18.2 18.2 0 0 0-6 7.5V64c1.4-1.5 2.8-3 4.4-4.4a23 23 0 0 1 5.2-3.5 12.7 12.7 0 0 1 12.1.3 10 10 0 0 1 4 4.8c1 2 1.4 4.3 1.4 6.9V98a29.8 29.8 0 0 1-6.7.5 48.3 48.3 0 0 1-6.6-.5V72.4Zm22.7-.1c0-2.3-.4-3.8-1.3-4.5a4 4 0 0 0-2.6-1.1c-1.2 0-2.4.5-3.7 1.4a20.3 20.3 0 0 0-6.4 7.9V63.7a28.3 28.3 0 0 1 10-7.7c2-.8 4-1.2 6-1.2a10 10 0 0 1 10 6.6 18 18 0 0 1 1.3 7v19c0 1.6.2 3.2.5 4.6a10 10 0 0 0 1.6 3.8 13 13 0 0 1-8.3 2.8c-2.6 0-4.5-.7-5.5-2-1-1.5-1.6-3.6-1.6-6.2V72.3ZM446 98a29.9 29.9 0 0 1-6.7.5 48.4 48.4 0 0 1-6.6-.5V69.8c0-1.4-.3-2.6-1-3.5-.5-1-1.5-1.4-3-1.4h-1.3a17.5 17.5 0 0 1-.4-6.9c0-.8.2-1.6.4-2.4a60.1 60.1 0 0 1 7.5-.4h1.8c2.8 0 5 1 6.8 2.8 1.6 1.8 2.5 4.2 2.5 7.4V98Zm-16-54.4c0-1.8.3-3.4 1-5l2.8-1a16.6 16.6 0 0 1 9.9 1 14.3 14.3 0 0 1 1 5c0 1.7-.4 3.4-1 5l-2.8.9a17.2 17.2 0 0 1-7.1 0 9.7 9.7 0 0 1-2.8-1c-.7-1.5-1-3.2-1-5Zm31.5 11.3a7 7 0 0 1 5.7 2.6c1.3 1.8 2 4.1 2 7V98a29.9 29.9 0 0 1-6.6.5 48.4 48.4 0 0 1-6.7-.5V55.5l.6-.6h5Zm31 32.4c0 1.7 0 3.3.4 4.7a10 10 0 0 0 1.7 3.8c-1 .8-2.2 1.5-3.7 2-1.4.6-3 .8-4.6.8-2.7 0-4.5-.7-5.6-2-1-1.5-1.6-3.6-1.6-6.2v-18a9 9 0 0 0-.7-4.3c-.5-1-1.5-1.4-2.9-1.4-.9 0-1.9.2-3 .7a14 14 0 0 0-3.5 2.3c-1.1 1-2.1 2.5-3 4.3V62.3c2-1.9 4.1-3.6 6.5-5.2 2.3-1.5 5-2.3 8-2.3 2.6 0 4.8.6 6.5 2 1.8 1.2 3.2 3 4 5.2a21 21 0 0 1 1.4 7.9v17.4ZM182 121.8a71.5 71.5 0 0 0 2.2.1h3.8a37 37 0 0 1 3.4-.1 9.8 9.8 0 0 1-.2 1.7 4 4 0 0 0-2 .4c-.5.2-.7.5-.6 1 0 .7.3 1.5.7 2.7a350 350 0 0 1 5 16.4h-.8l7.5-22.2.7-.2h1a463 463 0 0 1 8.1 22.2h-.8l4.6-14.6c.7-2 .8-3.4.5-4.2-.3-.8-1-1.3-2.4-1.5a4.2 4.2 0 0 1-.3-1.7 237.5 237.5 0 0 0 7.7 0v.8l-.3 1c-.4 0-.8.2-1.2.6-.3.3-.6 1-1 1.7l-1.1 3.4-6.3 19.8-.7.1-.9.1a509.7 509.7 0 0 0-8-21.7h.4l-7.2 21.5a2 2 0 0 1-.5 0l-.6.2h-.6a820.7 820.7 0 0 0-7.9-24.3c-.3-.6-.6-1-.9-1.1-.2-.2-.6-.3-1.1-.4l-.2-.8v-1Zm46.6 27.5c-1.9 0-3.4-.4-4.8-1.1-1.4-.8-2.4-2-3.2-3.4-.7-1.4-1-3-1-5 0-1.8.3-3.4 1-4.9a8.7 8.7 0 0 1 8-4.6c1.8 0 3.5.4 4.8 1.2a8 8 0 0 1 3.1 3.3c.7 1.4 1 3.1 1 5 0 1.8-.3 3.4-1 4.9a8.4 8.4 0 0 1-8 4.6Zm.3-2c1.6 0 2.8-.6 3.5-1.9.8-1.3 1.2-3 1.2-5.1a11 11 0 0 0-.8-4.3 6.4 6.4 0 0 0-2-2.8c-.8-.7-1.7-1-2.6-1-1.6 0-2.8.6-3.5 1.9a9.4 9.4 0 0 0-1.1 4.9c0 1.7.2 3.3.6 4.6.4 1.2 1 2.2 1.9 2.8a4 4 0 0 0 2.8 1Zm18.3-4.2c0 1.1.2 2 .4 2.6.2.6.6 1 1.2 1.3l2 .4.2.7v1a87.4 87.4 0 0 0-3.2-.1h-7.1v-.9l.2-.7a5 5 0 0 0 1.7-.4c.4-.2.6-.6.8-1 .2-.6.2-1.2.2-2.1v-4h3.6v3.2Zm0-5.9v3.2h-3.6V136l3.6-4c0 1 0 1.8-.2 2.5l-.4 2.2.6.5Zm-.8-.3a39 39 0 0 0 1.2-3c.6-1 1.2-1.7 2-2.3.8-.7 1.8-1 2.8-1 1 0 2 .4 2.8 1a51.4 51.4 0 0 0-.3 3.2v1.5a8 8 0 0 1-2.3.4c0-1.3-.3-2.1-.6-2.5-.4-.4-.8-.6-1.4-.6-.4 0-.9.2-1.4.8-.6.5-1 1.1-1.4 2a7 7 0 0 0-.6 2.8l-.8-2.3Zm-2.8 3.5V136a5 5 0 0 0-.2-1.6c0-.4-.4-.7-.8-1a5 5 0 0 0-2-.3l.1-.8.3-.7a16.1 16.1 0 0 0 5.4-1.3c.2 0 .4.2.6.5.2.2.2.6.2 1.2l-3.6 8.4Zm24-10.1c.7 0 1.4 0 2 .2l1.8.5v3a8 8 0 0 0-1.8-1.3 4 4 0 0 0-2.3-.6c-.5 0-1.2.1-1.8.4-.7.2-1.3.6-1.9 1.1a7 7 0 0 0-1.5 2.4c-.4 1-.6 2.3-.6 4 0 1.6.3 3 .8 4s1 1.7 1.8 2.2c.7.4 1.3.6 1.9.6a4 4 0 0 0 2.3-.7c.7-.5 1.3-1.3 1.8-2.5.5-1 .7-2.6.7-4.4l1.2 4.2a15.7 15.7 0 0 1-1.5 3 7.6 7.6 0 0 1-3 2.5 8.2 8.2 0 0 1-6.4-.4c-1.2-.7-2-1.7-2.7-3-.5-1.3-.8-3-.8-5s.4-3.6 1.2-5.1a9.7 9.7 0 0 1 8.7-5Zm6.8 13.2c0 .6 0 1.1.2 1.6.1.4.3.7.7.9l1.6.2v1l-.2.9c-.7 0-1.5.1-2.3.4-1 .2-1.7.5-2.3.8l-.7-.5c-.2-.3-.3-.9-.3-1.8l.1-1.4.5-2h2.7Zm0-17.5v17.9h-3.6v-18h3.6Zm-.8-5.7c.2 0 .4.2.6.5l.2 1v5.6h-3.6V126a5 5 0 0 0-.2-1.6c0-.4-.3-.8-.8-1-.4-.2-1-.3-2-.3l.1-.8.3-.7c.4 0 1 0 1.7-.2a18.7 18.7 0 0 0 3.7-1.1Zm7.2 28.8v-1l.2-.7a5 5 0 0 0 1.7-.4c.4-.2.6-.6.8-1 .2-.6.2-1.2.2-2.1v-17c0-.8 0-1.5-.2-2s-.4-.8-.8-1a4 4 0 0 0-1.7-.4 3 3 0 0 1-.2-.7v-1l3 .1h4a54.5 54.5 0 0 1 3.5 0c2.2 0 4 .3 5.3 1 1.4.7 2.3 1.7 2.9 2.9.6 1.1.9 2.4.9 3.8 0 1.5-.4 3-1 4.4a8.6 8.6 0 0 1-3 3.5 9 9 0 0 1-5.1 1.3c-1.1 0-2-.1-2.8-.4v-1.6l1 .2h1.2c1 0 1.9-.2 2.7-.5.9-.4 1.6-1 2.1-1.9a8 8 0 0 0 .8-3.8c0-2.2-.5-3.9-1.6-5.2-1-1.3-2.8-2-5.2-2a11.3 11.3 0 0 0-2.6.4l.6-.6V143c0 1.1.1 2 .4 2.6.2.6.6 1 1.1 1.3l2 .4.2.7v1a87.4 87.4 0 0 0-3.1-.1h-3.9a53.6 53.6 0 0 1-3.4 0Zm29-6c0 1.1.1 2 .4 2.6.2.6.6 1 1.1 1.3l2 .4c.2.2.2.4.2.7v1a87.4 87.4 0 0 0-3-.1h-7.2v-.9c0-.3 0-.5.2-.7a5 5 0 0 0 1.6-.4c.4-.2.7-.6.9-1l.2-2.1v-4h3.6v3.2Zm0-5.9v3.2h-3.6V136l3.6-4c0 1 0 1.8-.2 2.5l-.5 2.2.7.5Zm-.9-.3a37.8 37.8 0 0 0 1.2-3c.6-1 1.3-1.7 2.1-2.3a4.3 4.3 0 0 1 5.5 0 55.3 55.3 0 0 0-.2 3.2v1.5a8 8 0 0 1-2.3.4c0-1.3-.3-2.1-.7-2.5-.3-.4-.7-.6-1.3-.6a2 2 0 0 0-1.5.8 5 5 0 0 0-1.3 2 7 7 0 0 0-.6 2.8l-.9-2.3Zm-2.7 3.5V136a5 5 0 0 0-.2-1.6c-.1-.4-.4-.7-.8-1a5 5 0 0 0-2-.3l.1-.8c0-.2.1-.5.3-.7a16.1 16.1 0 0 0 5.3-1.3c.3 0 .5.2.6.5.2.2.3.6.3 1.2l-3.6 8.4Zm22.4 9a8 8 0 0 1-7.6-4.7 12.3 12.3 0 0 1 .1-9.6 8.7 8.7 0 0 1 2.9-3.5 7.5 7.5 0 0 1 4.4-1.3 7 7 0 0 1 4.2 1c1 .8 1.8 1.8 2.3 3 .6 1.3.9 2.7 1 4.3-.1.5-.3 1-.6 1.3h-2a137.8 137.8 0 0 0-10 .3v-2h8.4c0-1.8-.3-3.3-1-4.4a3 3 0 0 0-2.6-1.6c-.7 0-1.3.2-2 .6a4 4 0 0 0-1.4 2 15.5 15.5 0 0 0-.1 8 7 7 0 0 0 1.7 3 5 5 0 0 0 3.6 1.3 6 6 0 0 0 2.6-.6 7 7 0 0 0 2.3-1.7c.2 0 .4.2.6.5l.3.7c-.9 1.2-2 2-3.1 2.6-1.2.5-2.5.7-4 .7Zm23-17.7a650 650 0 0 0 .2 4.1l-1 .4-1 .1c0-.7-.3-1.4-.7-2.1-.4-.7-.9-1.2-1.5-1.6a4 4 0 0 0-2.3-.7c-.8 0-1.5.2-2 .6a2 2 0 0 0-.7 1.6c0 .5 0 .9.2 1.2.3.4.7.7 1.4 1.1.7.4 1.7.9 3.1 1.4 1.5.6 2.6 1.1 3.4 1.6.9.6 1.4 1.2 1.8 1.8.3.7.5 1.5.5 2.5s-.3 2-1 3c-.6.8-1.5 1.5-2.6 2-1 .4-2.3.6-3.7.6-1.6 0-2.9-.1-3.9-.3l-2.7-1.2v-1.5a41.8 41.8 0 0 0 0-3.4c.2-.2.5-.3.9-.3l1.2-.2c.2 1.7.7 3 1.6 3.8.8.8 1.9 1.2 3.3 1.2 1 0 2-.2 2.5-.7.6-.5 1-1 1-1.8 0-.5-.2-1-.4-1.3-.2-.3-.7-.7-1.3-1a24 24 0 0 0-2.7-1.2l-3.5-1.7a5.1 5.1 0 0 1-1.9-1.8c-.3-.7-.5-1.6-.5-2.6 0-.9.2-1.6.6-2.2.5-.7 1-1.2 1.7-1.6l2.2-1 2.1-.2c1.2 0 2.3 0 3.2.3l2.6 1Zm17.2 0a335.8 335.8 0 0 0 0 4.1l-.8.4-1.1.1c0-.7-.3-1.4-.7-2.1-.4-.7-.9-1.2-1.5-1.6a4 4 0 0 0-2.3-.7c-.8 0-1.5.2-2 .6a2 2 0 0 0-.7 1.6c0 .5 0 .9.3 1.2.2.4.6.7 1.3 1.1.7.4 1.7.9 3.1 1.4 1.5.6 2.6 1.1 3.4 1.6a5 5 0 0 1 1.8 1.8c.3.7.5 1.5.5 2.5s-.3 2-1 3c-.6.8-1.5 1.5-2.6 2-1 .4-2.3.6-3.7.6-1.6 0-2.9-.1-3.8-.3-1-.3-1.9-.7-2.8-1.2v-1.5a43.4 43.4 0 0 0 0-3.4c.2-.2.5-.3 1-.3l1.1-.2c.2 1.7.7 3 1.6 3.8.8.8 2 1.2 3.3 1.2 1 0 2-.2 2.5-.7.6-.5 1-1 1-1.8 0-.5-.2-1-.4-1.3-.2-.3-.7-.7-1.3-1a24 24 0 0 0-2.7-1.2l-3.5-1.7a5 5 0 0 1-1.8-1.8c-.4-.7-.6-1.6-.6-2.6 0-.9.2-1.6.6-2.2a5 5 0 0 1 1.7-1.6l2.2-1 2.1-.2c1.2 0 2.3 0 3.2.3l2.6 1Zm17.6-8c-1.3 0-2.2.2-2.9.6a4 4 0 0 0-1.4 1.7 16 16 0 0 0-.7 2.6 7 7 0 0 1-1-.1c-.4 0-.7-.2-.9-.3a36.6 36.6 0 0 0 .6-6.4 235.3 235.3 0 0 0 6.3.1h7.9a146.8 146.8 0 0 0 6.3-.1 54 54 0 0 0 .3 6.4l-1 .3h-1c0-1.5-.4-2.7-1.2-3.5-.7-.9-1.8-1.3-3.4-1.3h-7.9Zm2-.7h3.8v20.9c0 .9.1 1.5.3 2 .1.5.4.9.9 1 .4.3 1 .4 2 .5l.1.7v1l-2.6-.1h-4.4a40.9 40.9 0 0 1-3.4 0v-.9c0-.3 0-.5.2-.7l2-.4c.4-.2.7-.6.9-1 .2-.6.3-1.2.3-2.1v-21Zm32.6 20.9c0 1.4.1 2.3.5 2.8.4.4 1 .7 1.8.7l.2.7v1l-2-.1h-4a36.5 36.5 0 0 1-3.1 0v-.9l.2-.7c1 0 1.7-.3 2-.8.5-.5.8-1.4.8-2.7v-6.1c0-1.9-.4-3.2-1-3.8a4 4 0 0 0-2.8-1c-.7 0-1.3.1-2 .6a5 5 0 0 0-1.8 2.1c-.5 1-.7 2.3-.7 3.9v4.3c0 1.3.2 2.2.6 2.7.4.5 1.1.8 2.2.8l.1.7v1a72.6 72.6 0 0 0-3-.1h-3.4a36.5 36.5 0 0 1-3 0v-.9c0-.3 0-.5.2-.7 1 0 1.7-.3 2.1-.8.4-.5.6-1.4.6-2.7v-8l3.6-3.9v1.1l-.3 1.3.3-.4.3-.6c.5-.7 1.2-1.3 2.2-2a6.4 6.4 0 0 1 6.4-.3c1 .4 1.6 1 2.2 2 .5 1 .8 2.3.8 3.9v6.9Zm-15.5-18a5 5 0 0 0-.2-1.5c0-.4-.4-.8-.8-1-.4-.2-1-.3-2-.3l.1-.8c0-.2.1-.5.3-.7.4 0 1 0 1.7-.2a18 18 0 0 0 2.1-.5 6 6 0 0 0 1.5-.6c.3 0 .5.2.6.5.2.2.3.6.3 1v5.6h-3.6V126Zm0 0h3.6v6.1l-3.6 4.6V126Zm29.5 23.4c-1.9 0-3.4-.4-4.7-1.3a8 8 0 0 1-2.8-3.4 12.3 12.3 0 0 1 0-9.5 8.7 8.7 0 0 1 2.9-3.5 7.5 7.5 0 0 1 4.4-1.3 7 7 0 0 1 4.2 1c1 .8 1.8 1.8 2.3 3 .6 1.3.9 2.7 1 4.3-.1.5-.3 1-.6 1.3h-2a137.8 137.8 0 0 0-10 .3v-2h8.4c0-1.8-.3-3.3-1-4.4a3 3 0 0 0-2.6-1.6c-.7 0-1.3.2-2 .6a4 4 0 0 0-1.4 2 15.5 15.5 0 0 0-.1 8 7 7 0 0 0 1.7 3 5 5 0 0 0 3.6 1.3 6 6 0 0 0 2.6-.6 7 7 0 0 0 2.3-1.7c.2 0 .4.2.6.5l.3.7c-.9 1.2-2 2-3.1 2.6-1.2.5-2.5.7-4 .7Zm10.4-.2v-1c0-.3 0-.5.2-.7 1-.1 1.8-.4 2.1-.8.4-.5.6-1.4.6-2.7v-8a5 5 0 0 0-.2-1.5c-.1-.4-.4-.7-.8-1a5 5 0 0 0-2-.3l.1-.8.3-.7c.4 0 1 0 1.7-.2a36 36 0 0 0 3.5-1.1c.2 0 .4.2.6.5l.2 1v1.6l-.3 2.4h-.4a33.7 33.7 0 0 1 1.2-2.6 6.8 6.8 0 0 1 5.7-3c1.2 0 2.2.3 3.1.8a4.5 4.5 0 0 1 2.2 4h-.1c.2-.7.5-1.2.8-1.6a7.3 7.3 0 0 1 5.7-3c1 0 2 .3 2.8.7.9.4 1.5 1 2 2 .6 1 .9 2.3.9 3.9v6.9c0 .9 0 1.6.2 2 .2.6.4 1 .8 1 .4.3.8.4 1.4.5l.1.7v1l-2-.1H472a34 34 0 0 1-3.2 0v-.9l.2-.7a5 5 0 0 0 1.7-.4c.4-.2.7-.6.9-1l.2-2.1v-6.1c0-1.9-.4-3.2-1-3.8-.7-.7-1.6-1-2.7-1-.7 0-1.3.1-2 .6a4 4 0 0 0-1.7 2.1c-.5 1-.7 2.3-.7 3.9v4.3c0 1.4.2 2.3.6 2.7.4.5 1.2.7 2.2.8l.1.7v1l-2.2-.1H457v-.9c0-.3 0-.5.2-.7a5 5 0 0 0 1.6-.4c.4-.2.7-.6.9-1l.2-2.1v-6.3c0-1.9-.3-3.2-1-3.8-.7-.7-1.6-1-2.7-1-.6 0-1.3.1-2 .6a4 4 0 0 0-1.7 2.1c-.5 1-.7 2.3-.7 3.9v4.5c0 1.3.2 2.2.6 2.7.4.4 1.1.7 2.2.8l.2.7v1a168.4 168.4 0 0 0-3.2-.1h-3.1a37.4 37.4 0 0 1-3.2 0Zm44 .2a8 8 0 0 1-4.8-1.3 8 8 0 0 1-2.8-3.4 12.3 12.3 0 0 1 0-9.5 8.7 8.7 0 0 1 3-3.5 7.5 7.5 0 0 1 4.4-1.3 7 7 0 0 1 4.1 1c1 .8 1.9 1.8 2.4 3a18 18 0 0 1 1 4.3 4 4 0 0 1-.7 1.3h-2a137.8 137.8 0 0 0-10 .3v-2h8.5c0-1.8-.3-3.3-1-4.4a3 3 0 0 0-2.7-1.6c-.6 0-1.3.2-1.9.6a4 4 0 0 0-1.5 2 15.5 15.5 0 0 0-.1 8 7 7 0 0 0 1.7 3 5 5 0 0 0 3.6 1.3 6 6 0 0 0 2.6-.6 7 7 0 0 0 2.3-1.7c.2 0 .4.2.6.5l.4.7c-1 1.2-2 2-3.2 2.6-1.2.5-2.5.7-4 .7Z"/></svg>