<svg xmlns="http://www.w3.org/2000/svg" viewBox="0 0 1000 1000"><path fill="aquamarine" d="M480.2 940.8a437.7 437.7 0 0 1-243.1-87 446.7 446.7 0 0 1-151.3-204l-2.7-8a441.6 441.6 0 0 1-22.8-121l-.3-7.3 4.6-3.4 6.3-4.3c7.8-6 19.6-14 20-14 .3.2.7 8.5 1 18.4.7 41.5 7.4 79.7 20.6 119.8a414 414 0 0 0 48 98.2A419.6 419.6 0 0 0 271 838.8c55.8 38 119.2 61 185.4 68 54.7 5.7 108.5 1 160.7-14.3a409 409 0 0 0 292.2-382.4c.3-9.8.7-18 1-18.2.4-.2 12.2 8 20 14 1 .5 3.8 2.5 6.4 4.3l4.7 3.5-.2 7.2a447 447 0 0 1-22.8 121l-2.7 8a448.8 448.8 0 0 1-192.3 231.5A438 438 0 0 1 538 939.9c-9.3 1-48.8 1.6-57.4 1z"/><path fill="aquamarine" d="M498 898c-2-3.7-4.2-9.6-10.3-26.8-5.3-15-9.8-23.6-17-32.8-17.8-23-50.6-38.5-100.6-47.4-18.4-3.3-27.4-5-37.4-7.8-43.3-11.6-77-29.8-101.5-55a146.5 146.5 0 0 1-26.7-37.3 138 138 0 0 1-14.4-69.5c.7-20.3 5.8-41.6 14.3-60.6 1.6-3.7 2.7-6.8 2.5-7 0-.4-1.4-1-3-1.5-4.6-1.7-15.7-6.7-16.5-7.5-.7-.7 0-2 3.8-7.8l28.5-43.4c3-5 9.4-14.6 14-21.6l8.3-12.7 20.5-10.2c13.7-7 20.5-10 20.7-9.5.3 1 2.8 20.2 4.4 34.6l1 9.5-1.5 6.6-14 54.3-6.7 26.4c-.7 3-1.5 5.7-2 6.2-.7 1-1.2.8-12-4l-9-4-1 2c-2.2 5.3-6 16.6-8 24.8a103.5 103.5 0 0 0 1 60 85.2 85.2 0 0 0 26.4 37.2c27.2 22 66.7 34.8 125 41a63.1 63.1 0 0 0 40.8-8.6c3.8-2.3 11-9.8 14-14.3 6.2-9.5 11-21.8 14.6-38l1.7-7.6.2-97c0-60.5 0-100.6-.5-106.2-1-13.6-2.6-17.7-8.4-20.8-2.4-1.3-3-1.4-16.2-1a869 869 0 0 1-64-.6 221 221 0 0 1-87-27.5c-16.7-9.4-36-24.5-51-39.8l-5.7-6-2.2 2a639.4 639.4 0 0 1-67.4 54.2 921 921 0 0 1-22.3 14.5 775 775 0 0 1-51 27.5c-8.5 4.2-17.3 8.8-19.4 10l-4 2-3.5-3.7a76 76 0 0 1-11-14.5c-3.8-6-11.4-21-15-29.6-7.5-18.4-19-54-18-55.2.4-.3 3.3-.2 6.6.2 3.3.3 11.4.6 18 .6 42.6 0 90.5-12.7 138-36.4 6.2-3.4 12.5-6.6 14-7.4 10-5.7 13.2-7.5 19.6-11.4 4-2.4 11-7 15.4-10 4.5-3 8.3-5.4 8.5-5.4a233 233 0 0 0 51 53.6 204 204 0 0 0 73.2 35.1c13.2 3.3 22 4.4 37 4.8 23 .6 41.3-3 59-11.5l7-3.5-.3-14.7-.3-14.8-8-.5-46-3c-20.7-1.3-44.7-3-53.3-3.4l-16.4-1.3c-1-.4-1-49 0-49.4.7-.2 37.5-2.7 92-6.2l28.5-1.8 3.6-.4V260l-3.8-2.6a86 86 0 0 1-35.2-51.9 84 84 0 0 1 52.1-95.7c10-3.8 17-5 29.5-5 12.6 0 19.5 1.2 29.4 5a84.3 84.3 0 0 1 51.3 57.6 80 80 0 0 1 .7 38 78.6 78.6 0 0 1-12 28.8c-5.8 8.6-15 18-23 23.2l-4 2.6v27.2l3.6.4c2 0 14.8 1 28.5 2 54.5 3.4 91.3 6 92 6 .6.3.8 6 .8 24.8 0 19-.2 24.5-.8 24.7-.4 0-7.8.7-16.4 1.2-8.5.4-32.6 2-53.4 3.4-20.7 1.3-41.3 2.6-45.8 3l-8 .4-.3 14.8v14.7l7 3.5a123 123 0 0 0 59 11.5 150 150 0 0 0 36.8-4.8c25.6-6.4 51-18.5 73.3-35 17.4-13 35.3-31.7 48-50 1.4-2 2.8-3.7 3-3.7l8.4 5.5 15.4 10c6.4 3.8 9.6 5.6 19.7 11.3l14 7.3c47.4 23.6 95.3 36.3 137.8 36.3 6.7 0 14.8-.3 18-.6 3.4-.4 6.3-.5 6.6-.2 1 1.2-10.5 36.8-18 55.2a280.1 280.1 0 0 1-15 29.6 76 76 0 0 1-11 14.5l-3.7 3.8-4-2c-2-1.3-10.7-6-19.3-10.2-20-10-33.7-17.3-43-23l-8-4.5c-1-.5-15.8-10-22.4-14.6a693.5 693.5 0 0 1-67.4-54l-3-1.5-6 6c-15 15.3-34 30.4-50.7 39.7a222 222 0 0 1-87 27.4c-7 .8-37.4 1-64 .5-13.3-.4-14-.3-16.4 1-6 3-7.6 7.2-8.5 20.8-.4 5.6-.6 45.7-.4 106.2l.3 97 1.6 7.6c5 22 11.4 36.3 21.3 46.2 9 9.2 20.6 14 35.2 15 13.7 1 50.3-4.6 75-11.3 42.8-11.5 71.8-31 84.7-56.7 8.7-17.3 11-32.8 8.2-56-1-9.7-6.6-29.8-10.8-39.2l-1-2-8.8 4c-11 4.8-11.4 5-12.2 4-.4-.5-1.2-3.2-2-6.2-.6-3-3.6-14.8-6.6-26.5l-14-54.4-1.5-6.7 1-9.6c1.7-14.4 4.2-33.7 4.5-34.6.2-.5 7 2.6 20.7 9.5l20.5 10.2 8.3 12.7c4.6 7 11 16.7 14 21.6l28.4 43.4c3.7 5.7 4.4 7 3.7 7.8-.8.8-12 5.8-16.6 7.5-1.4.5-2.7 1-2.8 1.5-.2.2 1 3.3 2.5 7a167 167 0 0 1 14.4 60.5c1 25.5-3.4 47-14.3 69.4-14 28.7-40.6 54.3-74.3 71.8a275 275 0 0 1-38.7 16c-15.2 4.8-28.4 8-52.8 12.2-50 9-83 24.3-100.8 47.4-7 9.2-11.6 18-17 32.8-8 22.8-11.3 30.6-12.7 30.6-.3 0-1.5-1.6-2.5-3.8zm12.8-666.6a49 49 0 0 0 25.5-15.8 46.7 46.7 0 0 0-22-73.7c-4.8-1.6-6.4-1.8-13.8-1.8s-9 .2-13.7 1.7a46 46 0 0 0-31.5 53.2 47 47 0 0 0 16.7 27.6c5 3.7 12.8 7.5 18 8.5a60.5 60.5 0 0 0 20.8 0z"/><path fill="aquamarine" d="M373 593.4c-.5-.7.4-6 5-29.8 2-11.3 5-26.5 9.5-51.5l5-26.4 3-16.3.5-3 4.6-.5c2.6-.2 12-.4 21-.5h16.5l.6 1.4c.4.8 1 10.3 1.7 21 .5 11 2 38.8 3.5 62 1.3 23.5 2.2 42.7 2 43-1 .8-72.4 1.5-73 .7zm202 .1c-10.5 0-19.5-.4-19.8-.8-.2-.2.7-19.5 2-43 1.4-23.2 3-51 3.5-62 .6-10.7 1.3-20.2 1.7-21l.5-1.4h16.3c9 0 18.5.3 21 .5l4.7.4.5 3 3 16.4 5 26.5 9.6 51.6c4.6 23.5 5.5 29 5 29.7 0 .4-6.4.6-17 .5l-36-.3zm-232.7-3.3c-20.8-3-54-7.4-57.7-8-1.6 0-3.2-.3-3.6-.4-.8-.3 1.6-7.3 17-52l7.5-21.7 7-21c3.3-9 7-20.2 8.7-24.8 1.5-4.7 3-8.7 3.2-9 .2 0 7 1 15 2.8 8 1.6 17.2 3.5 20.3 4 3 .7 5.6 1.5 5.8 2 .2.4-.7 24-2 52.4-1 28.4-2.4 57.4-2.6 64.4-.3 8-.7 12.8-1.2 13.2-.4.3-7.7-.5-17.5-1.8zm298.7 1.6c-.3-.4-.7-6.3-1-13.2l-2.6-64.2c-1.2-28.4-2-52-2-52.4.3-.5 3-1.3 6-2l20-4c8.2-1.7 15-3 15.2-2.7.2.2 1.7 4.2 3.2 9l8.6 24.8 7 21c1 2.5 4.3 12.3 7.6 22 13.8 39.6 17.7 51.4 17.3 51.7-.2 0-2 .4-4.2.6l-21.7 3L660 590c-9 1-16.8 2.2-17.3 2.3-.6 0-1.3 0-1.6-.5zm-480-64.3c-5.5-4-14.3-11-19.7-15.4l-17.5-13.6c-9.2-7-18.4-14.6-18.4-15 0-.3 4-3.6 8.6-7.3l30.4-23.8L155 444a3350.7 3350.7 0 0 1 60.5-47.7l6-4.8 1.6 1.4c.8.7 7 7.4 13.4 14.7l12 13.2-2.4 3.6-17.3 25.7-21.6 32c-3.6 5.6-13 19.7-21 31.3a404.1 404.1 0 0 1-14.7 21.4c-.4 0-5-3.2-10.4-7.5zm667.3 6L815 513.7 795 484l-22.7-33.7-17.3-25.7-2.4-3.7 12-13.3L778 393l1.4-1.5 6 4.8 13 10.3c2.2 1.5 32.6 25.4 47.7 37.4l10.6 8.2a2342.1 2342.1 0 0 1 39 31.2c0 .4-9.2 8-18.4 15L859.7 512a657.6 657.6 0 0 1-29.8 23.2c-.3 0-1-.7-1.7-1.7zM87 347.4c-.5-1 11-28.2 18.5-43.2a418.7 418.7 0 0 1 52.6-82.1c26-31 52-55.8 80-76.6 4.2-3 4-3 12.3-8.6A433.4 433.4 0 0 1 456 61.2a446 446 0 0 1 194 23.6 439.2 439.2 0 0 1 100.7 52l12.2 8.6a469 469 0 0 1 80 76.7c3 4 15.4 20.2 18.2 24.4a446 446 0 0 1 51.4 96.5c1 2.4 1.4 4.2 1 4.5-1 1-21.8-5-33-10l-5.6-2.2-2.3-5a412.1 412.1 0 0 0-126.5-157.5l-9.8-7.2c-1.2-1-5.8-4-10.3-7a406.8 406.8 0 0 0-187.6-66 639 639 0 0 0-75.8 0c-48.8 4.7-93.4 17-136.8 37.4a418.4 418.4 0 0 0-61.2 35.5c-1.2 1-5.6 4-9.7 7.2A406.5 406.5 0 0 0 131.2 324a46.4 46.4 0 0 1-6.7 11.8c-3.7 2-15 6-24.5 9-10.2 3-12.4 3.5-13 2.6z"/></svg>